<?xml version="1.0" encoding="UTF-8"?>
<svg id="Layer_1" data-name="Layer 1" xmlns="http://www.w3.org/2000/svg" viewBox="0 0 16 16">
  <defs>
    <style>
      .cls-1 {
        fill: #f0efef;
      }

      .cls-2 {
        fill: #1e1e1e;
      }
    </style>
  </defs>
  <circle class="cls-1" cx="8" cy="8" r="8"/>
  <g>
    <path class="cls-2" d="M9.11,9.89c0,.07-.06,.11-.18,.11-.08,0-.15,0-.22-.01l-1.54-.05-1.54,.05c-.06,0-.12,.01-.18,.01-.16,0-.24-.04-.24-.13,0-.1,.11-.15,.33-.15,.71,0,1.07-.08,1.07-.22,0,0,0-.04-.02-.1l-.1-.33-.06-.18c-.07-.26-.25-.84-.53-1.73H3.28c-.49,1.35-.73,2.12-.73,2.32,0,.12,.05,.19,.15,.21,.02,0,.23,.03,.61,.05,.23,0,.35,.05,.35,.13,0,.08-.11,.13-.32,.13-.37,0-.81-.02-1.3-.05-.12,0-.25-.01-.38-.01s-.25,.01-.38,.04c-.06,.01-.12,.02-.16,.02-.11,0-.17-.04-.17-.11s.13-.12,.38-.13c.25,0,.44-.05,.55-.12s.2-.21,.27-.41c1.04-3.1,1.89-5.6,2.54-7.48,.02-.1,.06-.21,.11-.33l.05-.23c.02-.09,.06-.14,.1-.14,.02,0,.04,.03,.06,.08,.1,.33,.34,1.01,.72,2.06,.29,.82,1.02,2.86,2.17,6.14,.06,.19,.15,.31,.25,.36,.1,.05,.31,.08,.62,.09,.21,0,.32,.05,.32,.12Zm-3.29-3.02c-.13-.38-.35-1-.65-1.88l-.58-1.75c-.34,.93-.75,2.14-1.23,3.63h2.47Z"/>
    <path class="cls-2" d="M13.74,11.68c0,.65-.32,1.21-.98,1.67-.65,.46-1.43,.69-2.35,.69-.54,0-1.18-.12-1.92-.38-.2-.07-.35-.1-.45-.1-.12,0-.19,.1-.22,.31,0,.11-.07,.16-.19,.16-.1,0-.15-.05-.15-.14,0-.06,0-.11,.01-.14,.08-.46,.12-.89,.12-1.28,0-.08,0-.29-.03-.64,0-.05-.01-.11-.01-.18,0-.11,.06-.17,.18-.17,.1,0,.17,.09,.21,.28,.26,1.36,1.1,2.04,2.52,2.04,.61,0,1.08-.13,1.41-.39s.5-.63,.5-1.11c0-.42-.16-.79-.49-1.09-.32-.3-.88-.6-1.66-.89-.94-.36-1.6-.7-1.97-1.03-.37-.33-.55-.75-.55-1.24,0-.63,.27-1.15,.8-1.56,.53-.41,1.21-.61,2.02-.61,.34,0,.81,.09,1.4,.26,.21,.06,.36,.09,.46,.09,.11,0,.18-.02,.22-.05,.03-.03,.07-.11,.1-.24,.02-.08,.07-.11,.16-.11,.1,0,.15,.05,.15,.14,0,.06,0,.11-.01,.14-.03,.18-.04,.4-.04,.66,0,.36,.02,.65,.07,.86v.18c.02,.08-.02,.13-.12,.13-.11,0-.18-.09-.22-.26-.11-.45-.37-.82-.78-1.12-.41-.3-.87-.45-1.37-.45s-.89,.12-1.19,.36c-.29,.24-.44,.57-.44,.99,0,.49,.21,.88,.64,1.17,.24,.17,.76,.4,1.55,.71,.93,.36,1.61,.72,2.01,1.09,.41,.37,.61,.79,.61,1.26Z"/>
  </g>
</svg>