<?xml version="1.0" encoding="utf-8"?>
<!-- Generator: Adobe Illustrator 27.0.1, SVG Export Plug-In . SVG Version: 6.00 Build 0)  -->
<svg version="1.1" id="Layer_1" xmlns="http://www.w3.org/2000/svg" xmlns:xlink="http://www.w3.org/1999/xlink" x="0px" y="0px"
	 viewBox="0 0 200 200" style="enable-background:new 0 0 200 200;" xml:space="preserve">
<g>
	<path d="M72.14,6.6h16.52l39.13,107.85h-16l-10.94-32.3H58.19l-11.67,32.3H31.54L72.14,6.6z M96.15,70.25L79.78,22.61l-17.4,47.65
		H96.15z"/>
</g>
<g>
	<path d="M91.6,154.91c0.33,6.12,1.72,11.09,4.17,14.9c4.67,7.15,12.89,10.72,24.68,10.72c5.28,0,10.09-0.78,14.43-2.35
		c8.39-3.03,12.59-8.47,12.59-16.3c0-5.87-1.78-10.06-5.33-12.55c-3.6-2.45-9.25-4.58-16.93-6.39l-14.15-3.3
		c-9.25-2.15-15.79-4.53-19.63-7.12c-6.64-4.5-9.96-11.23-9.96-20.19c0-9.69,3.26-17.64,9.79-23.86c6.52-6.22,15.77-9.32,27.72-9.32
		c11,0,20.35,2.73,28.04,8.19c7.69,5.46,11.54,14.18,11.54,26.17h-13.73c-0.71-5.78-2.21-10.21-4.5-13.29
		c-4.27-5.63-11.52-8.44-21.75-8.44c-8.26,0-14.2,1.81-17.81,5.43c-3.61,3.62-5.42,7.83-5.42,12.63c0,5.29,2.13,9.15,6.4,11.6
		c2.8,1.57,9.13,3.52,18.99,5.87l14.65,3.45c7.07,1.67,12.52,3.94,16.36,6.83c6.64,5.04,9.96,12.36,9.96,21.95
		c0,11.94-4.24,20.48-12.71,25.62s-18.32,7.71-29.54,7.71c-13.08,0-23.32-3.43-30.71-10.28c-7.4-6.8-11.03-16.03-10.88-27.68H91.6z"
		/>
</g>
</svg>
