<?xml version="1.0" encoding="utf-8"?>
<!-- Generator: Adobe Illustrator 27.0.0, SVG Export Plug-In . SVG Version: 6.00 Build 0)  -->
<svg version="1.1" id="Layer_1" xmlns="http://www.w3.org/2000/svg" xmlns:xlink="http://www.w3.org/1999/xlink" x="0px" y="0px"
	 viewBox="0 0 376.4 143.2" style="enable-background:new 0 0 376.4 143.2;" xml:space="preserve">
<style type="text/css">
	.st0{enable-background:new    ;}
	.st1{fill:#F5F5F5;}
</style>
<g class="st0">
	<path class="st1" d="M45.9,0l33.3,85.3H66.7l-9.3-25.7H21.3l-9.6,25.7H0.2L33.4,0H45.9z M53.8,50L39.6,10.3h-0.2L24.9,50H53.8z"/>
</g>
<g class="st0">
	<path class="st1" d="M96,0.3c3,0,5.8,0.5,8.5,1.4c2.6,1,4.9,2.4,6.8,4.3s3.4,4.3,4.5,7.2c1.1,2.9,1.6,6.3,1.6,10.2
		c0,3.4-0.4,6.6-1.3,9.5c-0.9,2.9-2.2,5.4-4,7.5c-1.8,2.1-4,3.8-6.7,5c-2.7,1.2-5.8,1.8-9.4,1.8H75.7v-47H96z M95.2,38.7
		c1.5,0,2.9-0.2,4.3-0.7c1.4-0.5,2.7-1.3,3.8-2.4c1.1-1.1,2-2.6,2.6-4.4c0.7-1.8,1-4,1-6.6c0-2.4-0.2-4.5-0.7-6.4
		c-0.5-1.9-1.2-3.5-2.3-4.9c-1.1-1.4-2.4-2.4-4.2-3.1C98.1,9.4,95.9,9,93.4,9H86v29.6H95.2z"/>
	<path class="st1" d="M149.8,0.3c2.1,0,4,0.3,5.7,1c1.7,0.7,3.1,1.6,4.3,2.8c1.2,1.2,2.1,2.6,2.8,4.1c0.6,1.6,1,3.2,1,5
		c0,2.8-0.6,5.2-1.7,7.2c-1.2,2-3.1,3.6-5.7,4.6v0.1c1.3,0.4,2.3,0.9,3.2,1.6c0.8,0.7,1.5,1.6,2,2.6c0.5,1,0.9,2.1,1.2,3.3
		c0.2,1.2,0.4,2.4,0.5,3.6c0,0.7,0.1,1.6,0.1,2.6c0,1,0.1,2,0.2,3.1c0.1,1.1,0.3,2.1,0.5,3c0.2,0.9,0.6,1.7,1.1,2.4h-10.3
		c-0.6-1.5-0.9-3.3-1.1-5.3s-0.3-4-0.6-5.9c-0.4-2.5-1.1-4.3-2.2-5.4c-1.1-1.1-3-1.7-5.6-1.7h-10.3v18.4h-10.3v-47H149.8z
		 M146.1,21.6c2.4,0,4.1-0.5,5.3-1.6c1.2-1.1,1.8-2.8,1.8-5.1c0-2.3-0.6-3.9-1.8-5c-1.2-1-3-1.5-5.3-1.5h-11.3v13.2H146.1z"/>
	<path class="st1" d="M182.3,0.3v47H172v-47H182.3z"/>
	<path class="st1" d="M214.9,0.3l17.6,47h-10.7l-3.6-10.5h-17.6l-3.7,10.5h-10.4l17.8-47H214.9z M215.5,29.2l-5.9-17.3h-0.1
		l-6.1,17.3H215.5z"/>
	<path class="st1" d="M246.8,0.3l19.6,31.5h0.1V0.3h9.7v47h-10.3l-19.6-31.5h-0.1v31.5h-9.7v-47H246.8z"/>
</g>
<g class="st0">
	<path class="st1" d="M86.1,66.8c-3.8-2.7-8.6-4.1-14.5-4.1c-2.4,0-4.7,0.2-7,0.7c-2.3,0.5-4.4,1.3-6.2,2.4
		c-1.8,1.1-3.2,2.6-4.3,4.5c-1.1,1.9-1.6,4.2-1.6,7c0,2.6,0.8,4.8,2.3,6.4c1.6,1.6,3.6,3,6.2,4c2.6,1,5.5,1.9,8.8,2.6
		c3.3,0.7,6.6,1.4,10,2.2c3.4,0.8,6.7,1.7,10,2.8c3.3,1.1,6.2,2.5,8.8,4.4c2.6,1.8,4.7,4.1,6.2,6.9c1.6,2.8,2.3,6.3,2.3,10.5
		c0,4.5-1,8.4-3,11.6c-2,3.2-4.6,5.9-7.8,7.9c-3.2,2-6.7,3.5-10.7,4.4c-3.9,0.9-7.9,1.4-11.8,1.4c-4.8,0-9.3-0.6-13.6-1.8
		c-4.3-1.2-8-3-11.2-5.4c-3.2-2.4-5.8-5.5-7.6-9.3c-1.9-3.8-2.8-8.3-2.8-13.4h10.8c0,3.6,0.7,6.7,2.1,9.3c1.4,2.6,3.2,4.7,5.5,6.4
		s4.9,2.9,7.9,3.7c3,0.8,6.1,1.2,9.3,1.2c2.5,0,5.1-0.2,7.7-0.7c2.6-0.5,4.9-1.3,7-2.4c2.1-1.2,3.7-2.7,5-4.7c1.3-2,1.9-4.5,1.9-7.6
		c0-2.9-0.8-5.3-2.3-7.2c-1.6-1.8-3.6-3.3-6.2-4.5c-2.6-1.2-5.5-2.1-8.8-2.8c-3.3-0.7-6.6-1.5-10-2.2c-3.4-0.8-6.7-1.6-10-2.6
		c-3.3-1-6.2-2.3-8.8-3.9c-2.6-1.6-4.7-3.7-6.2-6.3c-1.6-2.6-2.3-5.8-2.3-9.7c0-4.3,0.9-8,2.6-11.2c1.8-3.1,4.1-5.7,7-7.8
		c2.9-2,6.2-3.5,9.9-4.5c3.7-1,7.5-1.5,11.4-1.5c4.4,0,8.4,0.5,12.2,1.6c3.7,1,7,2.7,9.9,4.9c2.8,2.2,5.1,5,6.7,8.4
		c1.6,3.4,2.5,7.4,2.7,12.1H92.7C92.1,74,89.9,69.5,86.1,66.8z"/>
</g>
<g class="st0">
	<path class="st1" d="M146.2,67.5c-0.6-1-1.4-1.9-2.3-2.6c-0.9-0.7-2-1.3-3.1-1.7c-1.2-0.4-2.4-0.6-3.7-0.6c-2.3,0-4.3,0.5-5.9,1.3
		c-1.6,0.9-2.9,2.1-4,3.6c-1,1.5-1.7,3.2-2.2,5.2s-0.7,3.9-0.7,6c0,2,0.2,3.9,0.7,5.8c0.5,1.9,1.2,3.5,2.2,5c1,1.5,2.3,2.7,4,3.6
		c1.6,0.9,3.6,1.3,5.9,1.3c3.2,0,5.6-1,7.4-2.9c1.8-1.9,2.9-4.5,3.3-7.6h10c-0.3,2.9-0.9,5.6-2,8c-1.1,2.4-2.5,4.4-4.3,6.1
		c-1.8,1.7-3.9,2.9-6.3,3.8c-2.4,0.9-5.1,1.3-8,1.3c-3.6,0-6.8-0.6-9.7-1.9c-2.9-1.3-5.3-3-7.3-5.2c-2-2.2-3.5-4.8-4.5-7.7
		c-1.1-3-1.6-6.2-1.6-9.6c0-3.5,0.5-6.8,1.6-9.8c1.1-3,2.6-5.6,4.5-7.9c2-2.2,4.4-4,7.3-5.3c2.9-1.3,6.1-1.9,9.7-1.9
		c2.6,0,5,0.4,7.3,1.1c2.3,0.7,4.4,1.8,6.2,3.3c1.8,1.4,3.3,3.2,4.5,5.3c1.2,2.1,1.9,4.5,2.2,7.2h-10
		C147.2,69.6,146.8,68.5,146.2,67.5z"/>
	<path class="st1" d="M175.2,54.9v18h19v-18h10.3v47h-10.3V81.7h-19V102h-10.3v-47H175.2z"/>
	<path class="st1" d="M228.2,54.9l11,32.3h0.1l10.4-32.3h14.6v47h-9.7V68.6h-0.1L242.9,102h-8l-11.5-33h-0.1v33h-9.7v-47H228.2z"/>
	<path class="st1" d="M283.7,54.9v47h-10.3v-47H283.7z"/>
	<path class="st1" d="M313.1,54.9c3,0,5.8,0.5,8.5,1.4c2.6,1,4.9,2.4,6.8,4.3c1.9,1.9,3.4,4.3,4.5,7.2c1.1,2.9,1.6,6.3,1.6,10.2
		c0,3.4-0.4,6.6-1.3,9.5c-0.9,2.9-2.2,5.4-4,7.5c-1.8,2.1-4,3.8-6.7,5c-2.7,1.2-5.8,1.8-9.4,1.8h-20.3v-47H313.1z M312.3,93.3
		c1.5,0,2.9-0.2,4.3-0.7c1.4-0.5,2.7-1.3,3.8-2.4c1.1-1.1,2-2.6,2.6-4.4c0.7-1.8,1-4,1-6.6c0-2.4-0.2-4.5-0.7-6.4
		c-0.5-1.9-1.2-3.5-2.3-4.9s-2.4-2.4-4.2-3.1c-1.7-0.7-3.9-1.1-6.4-1.1h-7.4v29.6H312.3z"/>
	<path class="st1" d="M337.9,63.6v-8.7h38.5v8.7h-14.1V102H352V63.6H337.9z"/>
</g>
</svg>
